<?xml version="1.0" encoding="UTF-8" standalone="no"?>
<!-- Created with Inkscape (http://www.inkscape.org/) -->

<svg
   version="1.1"
   id="svg689"
   viewBox="0 0 516.47998 116.64"
   xmlns="http://www.w3.org/2000/svg"
   xmlns:svg="http://www.w3.org/2000/svg">
  <defs
     id="defs693" />
  <g
     id="g695">
    <path
       style="fill:#ffffff;fill-opacity:1;stroke-width:0.24"
       d="m 475.28319,86.857258 c -3.42698,-0.572542 -5.60402,-2.172768 -5.60232,-4.117949 0.002,-1.847525 0.73555,-2.59555 3.69562,-3.766714 0.8218,-0.325149 0.66837,-0.559896 -0.87135,-1.333087 -1.42581,-0.71598 -2.10516,-1.796402 -2.10516,-3.348012 0,-2.172403 1.61033,-4.041982 4.62,-5.363822 0.627,-0.275376 1.14,-0.608422 1.14,-0.740105 0,-0.131681 -0.65369,-0.587832 -1.45262,-1.013667 -1.85871,-0.990672 -3.65957,-2.944797 -4.19249,-4.549279 -0.57022,-1.716746 -0.4099,-4.291176 0.36245,-5.820645 0.66365,-1.314243 2.15227,-2.784039 3.53321,-3.48854 2.41656,-1.232836 7.0253,-1.634858 9.67716,-0.844137 0.82152,0.244961 2.7035,0.446911 5.03229,0.54 l 3.72,0.148699 0.0731,1.14 0.0731,1.14 h -1.79899 c -0.98944,0 -1.86288,0.10339 -1.94097,0.229757 -0.0781,0.126365 0.21252,0.855365 0.64584,1.62 0.72984,1.287919 0.78765,1.549221 0.78561,3.550243 -0.002,1.878175 -0.0865,2.320318 -0.64819,3.388738 -0.7673,1.45948 -1.75603,2.346628 -3.5496,3.184968 -1.16786,0.54587 -1.72118,0.631778 -4.80055,0.745324 -3.05834,0.112772 -3.58656,0.193858 -4.35444,0.668439 -1.101,0.680445 -1.76105,1.977665 -1.46712,2.88335 0.36432,1.122571 1.48997,1.48723 4.62211,1.49737 3.85402,0.01248 7.2306,0.349901 8.70648,0.870041 1.50682,0.531038 3.10918,2.03602 3.53208,3.317412 0.48422,1.467237 0.20501,4.174807 -0.56623,5.490856 -1.69334,2.889473 -5.72964,4.262391 -12.36377,4.205446 -1.79769,-0.01543 -3.82512,-0.121042 -4.50535,-0.234686 z m 9.95851,-1.304919 c 1.94676,-0.442781 2.99698,-1.043666 3.65309,-2.090145 0.58346,-0.930622 0.50381,-2.35224 -0.17448,-3.113945 C 487.79919,79.313822 487.04504,79.2 481.11255,79.2 h -5.62284 l -0.74141,0.844402 c -0.86952,0.990352 -1.09908,1.729944 -0.8873,2.858841 0.19593,1.044355 1.47489,2.189724 2.83584,2.539587 0.56273,0.144664 1.13114,0.302683 1.26314,0.351151 0.69715,0.255981 5.84491,0.08515 7.28172,-0.241642 z m -3.08136,-18.750722 c 1.12548,-0.664841 1.70983,-2.01805 1.90882,-4.420387 0.26945,-3.252836 -0.0456,-6.225857 -0.79541,-7.505242 -1.39234,-2.375842 -4.48109,-2.23655 -5.70919,0.257465 -0.52363,1.063399 -0.56458,1.433729 -0.56458,5.106547 0,3.605506 0.0477,4.056679 0.53247,5.04 0.29284,0.594 0.83284,1.266127 1.2,1.493614 0.85207,0.527949 2.55794,0.541886 3.42789,0.028 z m -255.84035,4.372548 c 0,-3.407899 0.0965,-6.165463 0.21834,-6.24078 0.48878,-0.302079 0.91983,0.196015 1.19204,1.377434 0.83439,3.621382 3.61225,7.459791 6.38735,8.825969 2.89564,1.425518 6.77178,1.1928 8.85323,-0.531535 1.90027,-1.574256 2.6388,-4.807534 1.61366,-7.064688 -0.66542,-1.46514 -2.09524,-2.470443 -6.88493,-4.840805 -4.82433,-2.387506 -6.63943,-3.536657 -8.30416,-5.257433 -1.77198,-1.831627 -2.43159,-3.380285 -2.55027,-5.987652 -0.3094,-6.796973 3.94299,-10.914065 11.23474,-10.877292 1.93013,0.0097 2.83138,0.185859 6.6348,1.296605 1.7802,0.519886 2.61367,0.361411 3.1613,-0.601085 0.25904,-0.455253 0.59758,-0.710412 0.9439,-0.711386 l 0.54,-0.0015 v 5.4 c 0,5.32049 -0.007,5.4 -0.50246,5.4 -0.30452,0 -0.55311,-0.193594 -0.63099,-0.4914 -0.50959,-1.948678 -2.62025,-5.319926 -4.24262,-6.77651 -2.98572,-2.680628 -7.68655,-3.110324 -10.26756,-0.938549 -1.5877,1.335962 -2.14604,4.346553 -1.16333,6.272805 0.75032,1.470766 1.91916,2.24936 7.97933,5.315237 6.63852,3.358481 7.83362,4.271467 9.19373,7.023427 1.39963,2.83194 1.49812,6.319366 0.25773,9.124124 -0.79742,1.803091 -2.94345,4.033315 -4.74955,4.93582 -3.46421,1.731092 -8.7772,1.942193 -13.2438,0.526217 C 230.68724,75.938028 229.38307,75.6 229.09231,75.6 c -0.55272,0 -1.57232,0.904918 -1.57232,1.395468 0,0.156492 -0.27,0.284532 -0.6,0.284532 h -0.6 z m 141.6,5.735066 c -8.9509,-1.908437 -14.28144,-9.102269 -13.85163,-18.693458 0.23842,-5.320277 1.77303,-8.974109 5.19778,-12.375773 2.29418,-2.278714 3.95385,-3.356717 6.48777,-4.214006 4.82595,-1.632732 8.49732,-1.425257 14.71076,0.831326 2.42577,0.88098 2.96416,0.786242 3.96288,-0.69732 0.35707,-0.530424 0.7584,-0.84 1.08895,-0.84 0.52344,0 0.52349,7.2e-4 0.52349,5.756712 0,5.23373 -0.0372,5.763874 -0.40918,5.835514 -0.29638,0.05708 -0.63804,-0.372044 -1.23941,-1.556715 -2.29214,-4.515252 -5.92231,-7.930097 -9.38184,-8.825349 -1.91085,-0.494487 -3.12717,-0.466479 -5.01101,0.11538 -3.05827,0.944601 -5.12268,3.582235 -6.33463,8.093563 -0.59273,2.206368 -0.62988,2.67191 -0.64641,8.100895 -0.0194,6.363754 0.2338,8.175134 1.54975,11.088725 1.82661,4.04424 6.16737,6.337927 10.6697,5.637965 3.23302,-0.502628 5.82029,-1.853312 8.82629,-4.60777 0.86369,-0.791407 1.67203,-1.43892 1.79633,-1.43892 0.12432,0 0.40433,0.197045 0.62229,0.437878 0.37229,0.411379 0.3451,0.497664 -0.44932,1.425758 -1.215,1.419463 -4.24851,3.796541 -5.92481,4.642738 -2.31807,1.17016 -4.65238,1.656453 -7.84615,1.634546 -1.52988,-0.01049 -3.4836,-0.168754 -4.3416,-0.351689 z M 113.25111,76.369387 c -1.84593,-0.964325 -2.67732,-2.370955 -2.68897,-4.549478 -0.0204,-3.818256 2.61361,-5.97918 10.55405,-8.658406 L 124.44,62.04 v -3.163234 c 0,-2.820801 -0.0536,-3.234892 -0.49483,-3.825172 -0.94167,-1.259669 -1.68595,-1.630296 -3.47717,-1.731509 -1.89276,-0.106951 -2.88207,0.196973 -3.59614,1.104768 -0.61398,0.780549 -0.59677,1.004508 0.16302,2.121655 0.93,1.367417 1.1314,2.302409 0.7121,3.305938 -0.845,2.022367 -4.5609,2.385876 -5.67703,0.555357 -1.1114,-1.822745 -0.33496,-4.817421 1.64057,-6.327657 1.7686,-1.352038 3.40724,-1.821699 6.76948,-1.940235 5.50119,-0.193946 8.84729,1.156762 10.23195,4.13028 0.55376,1.189191 0.56346,1.340703 0.56924,8.889809 0.004,5.69003 0.0842,7.835467 0.30835,8.28 0.34084,0.676116 1.21692,0.906194 1.75384,0.460596 0.44482,-0.369173 0.95035,0.04473 0.73621,0.602774 -0.18243,0.475397 -2.10924,1.847403 -3.11542,2.218371 -0.4203,0.154958 -1.41218,0.28979 -2.20417,0.299628 -1.97862,0.02458 -2.95224,-0.50058 -3.74757,-2.021369 -0.34516,-0.66 -0.76099,-1.169393 -0.92405,-1.131984 -0.16306,0.03741 -0.69066,0.381674 -1.17243,0.765031 -2.95728,2.353174 -7.06979,3.092009 -9.66484,1.73634 z M 122.04,73.464036 c 0.528,-0.244982 1.31383,-0.81768 1.7463,-1.272662 l 0.78631,-0.827242 -0.0663,-3.822065 L 124.44,63.72 l -0.69789,0.05037 c -1.11927,0.08078 -3.27698,1.266497 -4.39146,2.413219 -2.29458,2.360945 -2.16851,6.33612 0.23407,7.380588 1.01776,0.44245 1.31169,0.430462 2.45528,-0.100141 z m 74.49814,3.135857 c -4.6028,-1.52418 -7.16269,-5.828091 -7.17398,-12.061503 -0.01,-5.513071 2.15644,-9.567093 6.16785,-11.541904 C 197.0804,52.234214 197.26867,52.2 199.91495,52.2 c 2.48931,0 2.90021,0.06337 4.12055,0.63551 1.7691,0.829414 3.20265,2.290234 4.0733,4.150764 0.77523,1.656622 1.47503,4.611497 1.36324,5.756132 l -0.072,0.737594 -6.34836,0.06408 c -4.55327,0.04596 -6.39777,0.144046 -6.52314,0.346884 -0.4197,0.679099 0.4232,4.842214 1.3468,6.6519 1.08995,2.135621 2.72107,3.138806 5.09699,3.134791 1.73789,-0.0029 3.4233,-0.760512 4.73642,-2.128968 0.90735,-0.945583 1.62966,-1.236729 1.91657,-0.772509 0.21254,0.343908 -2.33396,3.425596 -3.54915,4.295044 -1.98192,1.41804 -3.15493,1.800735 -5.79613,1.890996 -1.86041,0.06358 -2.70168,-0.01788 -3.74185,-0.362325 z m 6.93209,-16.812559 c 0.12898,-3.696375 -0.69621,-5.873242 -2.44489,-6.449616 -1.9753,-0.651072 -3.55869,0.447124 -4.30427,2.985319 -0.4262,1.450929 -0.77448,4.946952 -0.53192,5.339417 0.11459,0.185414 1.27185,0.249367 3.68891,0.203858 L 203.39999,61.8 Z m 57.35079,16.86899 c -1.39896,-0.430195 -2.62344,-1.610388 -3.01022,-2.90135 -0.20503,-0.684346 -0.29081,-3.590835 -0.29081,-9.853431 0,-6.886632 -0.0685,-8.939599 -0.3047,-9.135655 -0.1676,-0.139087 -0.78766,-0.287311 -1.37794,-0.329388 -0.7453,-0.05312 -1.09512,-0.19213 -1.14487,-0.454915 -0.0416,-0.219675 1.06989,-1.528481 2.64962,-3.12 1.49671,-1.507872 3.46284,-3.740585 4.36918,-4.961585 2.43163,-3.27583 2.52785,-3.202894 2.53238,1.92 0.002,2.277 0.0867,4.270639 0.18819,4.430309 0.11743,0.184785 1.01025,0.315638 2.45632,0.36 l 2.27182,0.06969 v 0.84 0.84 l -2.27182,0.06969 c -1.44607,0.04436 -2.33889,0.175215 -2.45632,0.36 -0.10148,0.15967 -0.18617,3.992777 -0.18819,8.518018 -0.004,8.746634 0.087,9.538572 1.16023,10.112973 1.09258,0.584724 1.98288,0.323086 3.20098,-0.940682 0.63617,-0.66 1.25794,-1.2 1.38173,-1.2 0.59808,0 0.4325,0.626093 -0.55627,2.103326 -2.08947,3.121654 -5.22502,4.3137 -8.60931,3.272998 z m 14.70329,-0.09853 c -2.11102,-0.989455 -2.96266,-2.361254 -2.97859,-4.797794 -0.0243,-3.718766 2.62629,-5.909112 10.29427,-8.506646 l 3.6,-1.219505 v -3.159912 c 0,-2.817363 -0.0536,-3.231694 -0.49483,-3.822094 -0.9414,-1.259803 -1.68581,-1.630538 -3.47717,-1.731758 -1.89276,-0.106951 -2.88206,0.196973 -3.59614,1.104768 -0.62248,0.791359 -0.60052,0.993043 0.24377,2.239032 1.41149,2.083039 0.79159,4.176386 -1.41249,4.769885 -2.007,0.540429 -3.71345,-0.304707 -4.10648,-2.03377 -0.62848,-2.76487 1.06829,-5.267998 4.49559,-6.632018 1.22738,-0.488484 1.80377,-0.553215 4.98775,-0.560146 3.16735,-0.0069 3.79617,0.05991 5.23241,0.555862 2.13753,0.73812 3.46828,1.781128 4.29734,3.368095 l 0.67025,1.283018 v 7.839195 c 0,6.706648 0.054,7.916253 0.37361,8.372592 0.39888,0.569498 1.27797,0.705811 1.71748,0.266313 0.3139,-0.313893 0.78891,-0.08514 0.78891,0.379918 0,0.463701 -1.3584,1.547503 -2.76,2.202067 -0.83585,0.390353 -1.63697,0.561014 -2.64,0.562387 -1.93095,0.0026 -2.96866,-0.537177 -3.65722,-1.902511 -0.29549,-0.585874 -0.62786,-1.155864 -0.73865,-1.266641 -0.11078,-0.110777 -0.62503,0.140079 -1.14278,0.557458 -0.51775,0.417379 -1.72809,1.136141 -2.6897,1.597248 -1.48402,0.711636 -2.06455,0.853553 -3.84,0.93876 -1.76086,0.08451 -2.26176,0.02064 -3.16733,-0.403803 z m 8.90006,-3.254438 c 0.34339,-0.175361 0.96439,-0.706111 1.38,-1.179446 l 0.75562,-0.860612 v -3.45202 c 0,-3.647645 -0.0845,-4.211278 -0.63094,-4.211278 -0.81427,0 -3.50244,1.480747 -4.50103,2.479344 -3.58766,3.587664 -1.19225,9.362902 2.99635,7.224012 z m 20.30453,3.409603 c -0.63307,-0.178409 -1.48339,-0.636811 -1.88954,-1.01867 C 301.33842,74.28317 301.33172,74.235266 301.19999,63.96 l -0.12,-9.36 -1.26,-0.07254 c -1.92379,-0.110758 -1.74173,-0.594922 1.4544,-3.86784 1.49294,-1.528791 3.35537,-3.643618 4.13875,-4.699618 2.47438,-3.335503 2.50685,-3.311261 2.50685,1.872 0,2.909333 0.0862,4.238196 0.288,4.44 0.18271,0.18271 1.104,0.288 2.52,0.288 h 2.232 v 0.96 0.96 h -2.25063 c -1.65444,0 -2.32574,0.09054 -2.53425,0.341784 -0.20947,0.252389 -0.26424,2.527939 -0.2094,8.7 0.0773,8.694893 0.12079,9.073061 1.13347,9.850584 0.95856,0.735943 2.69916,0.145051 3.63943,-1.235496 0.57394,-0.842666 1.42138,-1.161091 1.42138,-0.534082 0,0.565409 -1.83749,3.18984 -2.68702,3.837821 -1.80319,1.375356 -4.5438,1.892403 -6.74407,1.272348 z m 18.79109,-0.107906 c -4.66476,-1.552042 -7.18743,-5.7492 -7.19645,-11.97324 -0.004,-3.026571 0.29028,-4.501368 1.34234,-6.718503 1.06719,-2.248982 2.72612,-3.94745 4.82804,-4.943083 1.53703,-0.728054 1.7772,-0.770227 4.38607,-0.770227 2.48474,0 2.89536,0.06346 4.11729,0.636326 1.71855,0.805695 3.1344,2.259524 4.02771,4.13576 0.72763,1.528257 1.54996,4.991037 1.41367,5.952796 l -0.0787,0.555118 -6.42905,0.06394 c -5.30688,0.05278 -6.45199,0.123756 -6.56054,0.406654 -0.0723,0.188493 -0.0115,1.131722 0.13521,2.096064 0.79051,5.196564 2.80635,7.636435 6.30483,7.631001 1.86794,-0.0029 3.50764,-0.721445 4.85824,-2.128968 0.97738,-1.018541 1.81131,-1.291555 1.81131,-0.592982 0,0.507079 -1.80768,2.706235 -3.15732,3.841077 -1.82899,1.537901 -3.33643,2.075597 -6.07539,2.167064 -1.8569,0.06201 -2.70909,-0.02002 -3.72729,-0.358793 z M 330.34064,59.04 c -0.0296,-4.221773 -0.96304,-5.839999 -3.36876,-5.839999 -2.17269,0 -3.32952,1.708017 -3.7553,5.544564 -0.14438,1.300956 -0.19145,2.55054 -0.10462,2.77685 0.14093,0.367239 0.53902,0.404331 3.70296,0.345029 L 330.35999,61.8 Z m 68.77934,17.656087 c -3.91473,-1.091028 -6.94572,-4.284873 -8.01979,-8.450729 -0.44045,-1.708327 -0.49692,-5.0179 -0.11693,-6.853545 0.74972,-3.621715 3.15996,-6.761652 6.35504,-8.27898 1.69226,-0.803657 2.07314,-0.888725 4.3972,-0.982061 2.1608,-0.08678 2.77776,-0.02316 4.09152,0.42192 5.02937,1.703837 7.93296,6.098729 7.93296,12.007308 0,1.236732 -0.16752,2.860404 -0.3802,3.685358 -1.09575,4.249889 -4.38636,7.640938 -8.28732,8.540268 -1.42304,0.328068 -4.64751,0.279728 -5.97248,-0.08954 z m 5.51633,-1.783267 c 1.56958,-1.649959 1.80367,-2.97811 1.80367,-10.23282 0,-7.867855 -0.35133,-9.516202 -2.34564,-11.005171 -0.82956,-0.619361 -2.48961,-0.625107 -3.56368,-0.01234 -1.06764,0.609086 -2.05253,2.601055 -2.36216,4.777509 -0.31435,2.209491 -0.31233,10.615556 0.003,12.6 0.52121,3.280078 1.87052,4.8 4.26113,4.8 1.22196,0 1.38823,-0.06996 2.20368,-0.92718 z m 48.70181,1.6851 c -4.54131,-1.497146 -7.18397,-5.9232 -7.17459,-12.01631 0.006,-4.243462 1.18764,-7.42447 3.61716,-9.741828 0.77237,-0.736712 2.02868,-1.632046 2.7918,-1.989629 C 453.8294,52.26119 454.22021,52.2 456.72502,52.2 c 2.6431,0 2.83601,0.03493 4.37374,0.79195 1.80979,0.890959 2.93323,2.08752 3.885,4.137871 0.73543,1.58435 1.39985,4.429723 1.29367,5.540268 l -0.0774,0.809911 -6.34836,0.06408 c -4.20696,0.04246 -6.40219,0.151207 -6.50798,0.32238 -0.37476,0.60637 0.43154,4.915219 1.20261,6.42661 1.20116,2.354469 2.76269,3.374414 5.17373,3.379315 1.79057,0.0036 3.44091,-0.719179 4.83178,-2.116219 0.95966,-0.963936 1.59617,-1.228738 1.87377,-0.779556 0.22239,0.359836 -2.00824,3.11478 -3.33002,4.112721 -2.09563,1.582224 -3.29472,1.996551 -6.01553,2.078592 -1.83741,0.05541 -2.71454,-0.03132 -3.74186,-0.370003 z m 6.98186,-16.826107 c 0,-3.872362 -0.76531,-5.864052 -2.46914,-6.425739 -1.95331,-0.643936 -3.64872,0.51967 -4.31439,2.961084 -0.44311,1.62511 -0.78585,4.969328 -0.54866,5.353126 0.10356,0.167537 1.43321,0.259716 3.74635,0.259716 h 3.58584 z m 42.68074,16.822692 c -1.81167,-0.599412 -2.78636,-1.23001 -4.14308,-2.680455 -2.06224,-2.204702 -3.03328,-5.136794 -3.05812,-9.23405 -0.0345,-5.694768 2.13403,-9.776825 6.22267,-11.713649 1.52753,-0.72359 1.7718,-0.766351 4.37779,-0.766351 2.37185,0 2.92877,0.07761 3.96,0.551844 1.34381,0.617974 2.76322,1.88004 3.62561,3.223709 0.71167,1.108797 1.77439,4.218787 1.77439,5.192599 0,0.397937 0.108,0.790267 0.24,0.871848 0.132,0.08158 0.24,0.45947 0.24,0.839753 v 0.691425 l -6.51391,0.02122 c -3.58267,0.01166 -6.61903,0.08617 -6.74748,0.165555 -0.28752,0.177691 -0.0495,2.538919 0.45473,4.511414 0.91723,3.588108 2.9112,5.415797 5.89711,5.405371 1.87116,-0.0065 3.13718,-0.549765 4.71009,-2.021052 1.0675,-0.998512 1.8781,-1.335043 2.2705,-0.942633 0.1578,0.157795 -0.216,0.613229 -2.5758,3.138367 -0.95246,1.019184 -1.93183,1.77421 -2.95438,2.277607 -1.35343,0.666298 -1.81128,0.762483 -3.97524,0.835123 -1.91311,0.06422 -2.74159,-0.01582 -3.80488,-0.367636 z M 509.85864,59.28 c -0.0253,-2.993786 -0.34452,-4.288942 -1.29009,-5.23451 -0.82781,-0.827799 -1.7922,-1.070717 -2.96511,-0.746861 -1.69185,0.467141 -2.68687,2.48663 -2.96604,6.019901 -0.21907,2.772871 -0.43317,2.625336 3.69752,2.547914 L 509.87998,61.8 Z M 54.656535,76.176535 C 54.342123,75.862123 54.808426,75.36 55.414822,75.36 c 0.353909,0 1.125353,-0.243 1.714322,-0.54 1.896478,-0.956338 1.888155,-0.887546 1.900349,-15.708187 0.0066,-8.081542 -0.08233,-13.201049 -0.242405,-13.947466 -0.331178,-1.544225 -1.241366,-2.417198 -2.912714,-2.793619 -0.808387,-0.182064 -1.274376,-0.412018 -1.274376,-0.628872 0,-0.290383 1.517762,-0.341856 10.079999,-0.341856 8.903671,0 10.297162,0.05095 11.940859,0.436562 3.723754,0.8736 6.304752,2.662232 7.466182,5.174062 0.42094,0.910366 0.512959,1.561438 0.512959,3.629376 0,3.028414 -0.405982,4.11606 -2.273424,6.090602 -2.345026,2.47952 -5.147549,3.393617 -11.228177,3.662288 -2.553597,0.112828 -3.740371,0.256699 -3.921911,0.475442 -0.176679,0.212882 -0.23288,2.186407 -0.174927,6.142661 0.07404,5.05464 0.142834,5.935133 0.517829,6.627866 0.465386,0.859719 1.981505,1.706763 3.071225,1.715871 0.645031,0.0054 1.291291,0.523365 1.007304,0.807352 -0.197096,0.197096 -16.744622,0.211215 -16.941381,0.01445 z M 72.30599,58.531759 c 1.449744,-0.473606 2.714834,-1.724599 3.314489,-3.277557 0.711633,-1.842956 0.778173,-6.393629 0.125371,-8.574202 -0.819852,-2.73857 -3.127486,-4.170233 -6.298022,-3.907306 -0.932674,0.07735 -1.469592,0.262301 -1.842091,0.634563 -0.514311,0.513979 -0.527266,0.682286 -0.595937,7.742193 -0.05414,5.566042 -4.8e-4,7.300808 0.234633,7.584092 0.246152,0.296596 0.675464,0.341013 2.230198,0.230745 1.058952,-0.07511 2.333064,-0.269743 2.831359,-0.432528 z M 87.4024,75.930948 c 0.04268,-0.213979 0.445481,-0.510979 0.895118,-0.66 0.449635,-0.149021 1.043635,-0.575712 1.32,-0.948199 0.485484,-0.654348 0.504792,-0.97656 0.570888,-9.527583 0.07917,-10.243032 0.07774,-10.252101 -1.754472,-11.062574 -1.943361,-0.859642 -1.326355,-1.046753 3.685872,-1.117774 l 4.60019,-0.06518 0.0037,1.625184 c 0.0058,2.561276 0.192838,2.619296 2.08705,0.647388 0.896102,-0.932858 2.122374,-1.931479 2.725054,-2.219155 1.28368,-0.612746 3.49962,-0.704345 4.49614,-0.185853 3.24342,1.687548 2.59452,6.624676 -0.87033,6.621904 -1.06568,-8.52e-4 -2.68158,-0.689066 -2.68158,-1.142088 0,-0.104522 -0.31792,-0.538111 -0.70648,-0.963528 -1.29204,-1.414608 -3.11164,-0.711712 -4.190054,1.618587 -0.458491,0.990729 -0.510612,1.60254 -0.583385,6.847927 -0.100173,7.220314 6e-5,8.128147 1.008812,9.136898 0.502209,0.50221 1.108876,0.821084 1.776837,0.933934 0.63261,0.106879 1.01427,0.298884 1.01427,0.510264 0,0.283824 -1.095023,0.338904 -6.737602,0.338904 -6.084504,0 -6.730078,-0.03771 -6.66,-0.389052 z m 48.91759,0.04028 c 0,-0.191823 0.47677,-0.559664 1.05948,-0.817424 0.58271,-0.257762 1.17671,-0.687715 1.32,-0.955454 0.37145,-0.694058 0.35971,-18.518069 -0.0127,-19.335494 -0.25257,-0.554309 -1.4875,-1.342858 -2.10303,-1.342858 -0.14505,0 -0.26373,-0.218282 -0.26373,-0.485074 0,-0.472586 0.12201,-0.483398 4.74,-0.42 l 4.74,0.06507 0.12,10.56 c 0.13146,11.568295 0.11066,11.40989 1.57932,12.023539 0.45138,0.188597 0.82068,0.503453 0.82068,0.699682 0,0.306192 -0.85074,0.356779 -6,0.356779 -5.08746,0 -6,-0.05304 -6,-0.34877 z m 15.36,-0.01318 c 0,-0.199068 0.43615,-0.536456 0.96922,-0.749748 1.68106,-0.672622 1.67078,-0.605844 1.67078,-10.857972 v -9.113506 l -0.60648,-0.72077 c -0.33357,-0.396423 -0.92757,-0.79129 -1.32,-0.877484 -0.49264,-0.108199 -0.71352,-0.301005 -0.71352,-0.622826 0,-0.447598 0.18351,-0.463524 4.62,-0.40093 l 4.62,0.06518 0.0722,1.68 c 0.0397,0.924 0.17186,1.779739 0.29364,1.901645 0.13532,0.135456 0.785,-0.393401 1.67071,-1.359991 1.8061,-1.971046 3.39544,-2.821805 5.27055,-2.821282 2.51515,7.2e-4 3.88051,1.19867 4.03056,3.536402 0.15073,2.34836 -0.86817,3.423226 -3.24498,3.423226 -1.05553,0 -1.18851,-0.07807 -2.45271,-1.44 -1.02241,-1.101456 -1.49526,-1.44 -2.01128,-1.44 -0.92423,0 -1.97425,0.803426 -2.61415,2.00021 -0.51132,0.956319 -0.53776,1.298753 -0.60794,7.875502 -0.0602,5.644174 -0.01,7.027661 0.2811,7.724059 0.38284,0.916275 1.21118,1.46196 2.62057,1.726363 0.52056,0.09766 0.8917,0.306008 0.8917,0.500576 0,0.276451 -1.14601,0.33329 -6.72,0.33329 -5.82937,0 -6.72,-0.04797 -6.72,-0.361944 z m 22.56,0.01318 c 0,-0.191823 0.47677,-0.559664 1.05948,-0.817424 0.58271,-0.257762 1.20371,-0.721814 1.38,-1.031232 0.46729,-0.820173 0.46584,-17.978325 -0.002,-19.085736 C 176.38416,54.341083 175.20728,53.52 174.50372,53.52 c -0.14505,0 -0.26373,-0.218282 -0.26373,-0.485074 0,-0.472586 0.12201,-0.483398 4.74,-0.42 l 4.74,0.06507 0.12,10.56 c 0.13146,11.568295 0.11065,11.40989 1.57932,12.023539 0.45138,0.188597 0.82068,0.503453 0.82068,0.699682 0,0.306192 -0.85074,0.356779 -6,0.356779 -5.08746,0 -6,-0.05304 -6,-0.34877 z m 242.15999,0.03208 c 0,-0.17418 0.34908,-0.47118 0.77571,-0.66 0.42665,-0.188823 1.02302,-0.713811 1.32528,-1.16664 l 0.54957,-0.823327 -0.0653,-14.811596 c -0.0636,-14.42412 -0.0778,-14.825673 -0.54528,-15.349795 -0.264,-0.296011 -0.83846,-0.68987 -1.2766,-0.875241 -0.43815,-0.185372 -0.75315,-0.467465 -0.70001,-0.626876 C 416.53443,41.476656 417.79246,41.4 421.21998,41.4 h 4.66 l 0.12,16.210752 c 0.1326,17.914272 0.0541,17.075774 1.6614,17.741546 0.40623,0.168264 0.7386,0.454834 0.7386,0.636819 0,0.272354 -1.06132,0.330883 -6,0.330883 -4.80861,0 -6,-0.06288 -6,-0.316687 z m 14.64,0 c 0,-0.17418 0.3433,-0.47118 0.76287,-0.66 0.41957,-0.188823 0.98657,-0.648163 1.26,-1.020759 0.48823,-0.665311 0.49826,-0.93827 0.55973,-15.24 0.0704,-16.384456 0.12967,-15.796792 -1.6826,-16.68232 -0.495,-0.24187 -0.9,-0.595155 -0.9,-0.785074 0,-0.29095 0.74616,-0.335064 4.74,-0.280234 l 4.74,0.06507 0.12,16.210714 c 0.1326,17.914231 0.0541,17.075815 1.6614,17.741584 0.40623,0.168264 0.7386,0.454834 0.7386,0.636819 0,0.272354 -1.06133,0.330883 -6,0.330883 -4.80861,0 -6,-0.06288 -6,-0.316687 z M 22.319999,75.387583 c 0,-0.116829 1.794641,-3.221829 3.98809,-6.9 2.193446,-3.67817 4.197895,-7.281583 4.45433,-8.007583 0.989241,-2.800692 0.434095,-5.117249 -1.670206,-6.969528 l -1.107583,-0.974933 8.027685,0.07223 c 7.730067,0.06955 8.064118,0.09172 9.010406,0.598092 1.088103,0.582247 2.38938,1.945216 2.788601,2.9208 1.449005,3.540962 1.088575,4.537152 -5.634535,15.573338 l -2.375832,3.9 h -8.740478 c -4.910313,0 -8.740478,-0.09308 -8.740478,-0.212416 z M 11.075312,68.125094 C 9.2645464,67.603901 7.4537056,65.011886 2.3808852,55.68 1.4121886,53.898 0.48020444,52.297286 0.30980932,52.122857 -0.07908713,51.724754 -0.08670666,51.773419 0.46393294,51.138526 0.71909604,50.844319 2.7356901,47.412317 4.9452528,43.511854 c 3.6357705,-6.4181 4.0483696,-7.049381 4.3435482,-6.645701 0.1793887,0.245328 2.018547,3.471806 4.087017,7.169949 3.015262,5.390876 4.028408,6.992943 5.110412,8.08099 1.870513,1.880962 3.69928,2.330285 6.128138,1.505664 0.611129,-0.207482 1.163501,-0.324886 1.227492,-0.260894 0.127341,0.127341 -7.190862,12.741081 -7.781798,13.412798 -0.200636,0.228065 -0.911434,0.687065 -1.57955,1.02 -0.974062,0.485395 -1.550189,0.601051 -2.907635,0.583694 -0.931083,-0.0119 -2.054987,-0.12587 -2.497565,-0.25326 z M 22.574516,44.327729 C 18.974539,37.985863 18.86617,37.7544 18.768475,36.198451 c -0.0839,-1.336279 -9.12e-4,-1.819188 0.500994,-2.91551 0.742496,-1.621827 2.144481,-3.059328 3.412432,-3.498883 1.215041,-0.421215 8.32623,-0.617112 13.95615,-0.384464 l 4.118051,0.170172 4.281948,7.332036 c 2.355072,4.03262 4.281948,7.44678 4.281948,7.587022 0,0.175178 -2.741829,0.25752 -8.76,0.263081 -9.240323,0.0085 -9.66359,0.05184 -11.302518,1.156315 -1.080675,0.728266 -1.847326,1.91863 -2.311913,3.589654 -0.211344,0.760168 -0.447557,1.376604 -0.524916,1.369855 -0.07736,-0.0067 -1.808119,-2.949751 -3.846135,-6.54 z m 118.130434,3.440954 c -1.36863,-0.621285 -1.98291,-1.671849 -1.98406,-3.393192 -0.001,-2.233713 1.54033,-3.815491 3.7191,-3.815491 2.16537,0 3.72,1.582709 3.72,3.787164 0,1.682539 -0.67024,2.824236 -2.01709,3.435905 -1.25096,0.568128 -2.16314,0.564309 -3.43795,-0.01438 z m 37.92,0 c -1.36863,-0.621285 -1.98291,-1.671849 -1.98406,-3.393192 -9.6e-4,-1.590614 0.61922,-2.682336 1.91536,-3.371105 1.69251,-0.8994 3.90004,-0.352142 4.98374,1.235492 0.72033,1.055292 0.74672,3.138124 0.0542,4.274076 -0.53847,0.883188 -2.10759,1.715505 -3.23415,1.715505 -0.396,0 -1.17676,-0.20735 -1.73504,-0.460776 z"
       id="path816" />
  </g>
</svg>
