<?xml version="1.0" encoding="UTF-8" standalone="no"?>
<!-- Created with Inkscape (http://www.inkscape.org/) -->

<svg
   version="1.1"
   id="svg930"
   viewBox="0 0 2151.2925 241.99681"
   xmlns="http://www.w3.org/2000/svg"
   xmlns:svg="http://www.w3.org/2000/svg">
  <defs
     id="defs934" />
  <g
     id="g936"
     style="display:inline"
     transform="translate(-0.13442636,-0.7050339)">
    <path
       style="fill:#000000"
       d="m 1983.5,242.38065 c -1.65,-0.24816 -3.9,-0.85319 -5,-1.34451 -1.1,-0.49133 -4.475,-1.66677 -7.5,-2.61208 -3.7177,-1.16178 -6.8772,-3.08662 -9.75,-5.93983 -3.7133,-3.68806 -4.2495,-4.77436 -4.2463,-8.60265 0.01,-7.84773 2.9983,-10.92295 15.3984,-15.8291 3.4242,-1.35479 2.7849,-2.3329 -3.6306,-5.55453 -5.8427,-2.93395 -8.7715,-7.50357 -8.7715,-13.68567 0,-9.23237 5.5441,-16.05554 17.75,-21.84519 3.4375,-1.63051 6.25,-3.40756 6.25,-3.94898 0,-0.54143 -2.2906,-2.14515 -5.0902,-3.56382 -6.478,-3.28266 -13.2989,-9.55983 -16.7304,-15.39677 -2.398,-4.07887 -2.6794,-5.55526 -2.6794,-14.05752 0,-8.12106 0.3572,-10.19916 2.4606,-14.31676 2.8038,-5.48866 9.0156,-11.61011 14.75,-14.53558 10.069,-5.13682 29.2721,-6.811912 40.3215,-3.517243 3.423,1.020671 11.2646,1.86213 20.9679,2.25 l 15.5,0.619583 0.3048,4.75 0.3048,4.75 h -7.4958 c -4.1227,0 -7.762,0.43079 -8.0874,0.95732 -0.3254,0.52652 0.8855,3.56402 2.691,6.75 3.041,5.36633 3.2819,6.45509 3.2734,14.79268 -0.01,7.82573 -0.3604,9.66799 -2.7008,14.11974 -3.1971,6.08117 -7.3168,9.77762 -14.79,13.2707 -4.8661,2.27446 -7.1716,2.63241 -20.0023,3.10552 -12.7431,0.46988 -14.944,0.80774 -18.1435,2.78516 -4.5875,2.83519 -7.3377,8.24027 -6.113,12.01396 1.5183,4.67828 6.208,6.19706 19.2588,6.23704 31.9145,0.0978 44.4064,3.91311 49.8883,15.23709 2.3452,4.84462 2.8159,13.65499 1.0661,19.95553 -2.4579,8.85023 -13.1303,17.36932 -24.9544,19.91948 -3.025,0.65242 -6.0766,1.62866 -6.7813,2.16941 -1.3105,1.00558 -32.2985,1.88219 -37.7187,1.06702 z m 38.3405,-6.91257 c 8.1115,-1.84492 12.4874,-4.34861 15.2212,-8.70894 2.4311,-3.87759 2.0992,-9.801 -0.727,-12.97477 -3.838,-4.31011 -6.9803,-4.78437 -31.699,-4.78437 h -23.4285 l -3.0892,3.51834 c -7.8108,8.89609 -4.2016,18.43775 8.5104,22.49848 7.5432,2.4096 25.5853,2.64083 35.2121,0.45126 z m -12.839,-78.12801 c 4.6895,-2.77017 7.1243,-8.40854 7.9534,-18.41828 1.1227,-13.55348 -0.1901,-25.94107 -3.3142,-31.27184 -5.8014,-9.899345 -18.6712,-9.31896 -23.7883,1.07277 -2.1818,4.43083 -2.3524,5.97387 -2.3524,21.27728 0,15.02294 0.1986,16.90283 2.2186,21 1.2202,2.475 3.4702,5.27553 5,6.22339 3.5503,2.19979 10.6581,2.25786 14.2829,0.11668 z M 943,175.55902 c 0,-14.19958 0.40199,-25.68943 0.90976,-26.00325 2.0176,-1.24694 3.79768,0.78928 5.01134,5.73243 3.89309,15.85631 15.07642,31.22217 26.79353,36.81423 12.31974,5.87967 28.01567,4.91765 36.66437,-2.24721 7.9178,-6.5594 10.995,-20.03139 6.7236,-29.4362 -2.7726,-6.10475 -8.7302,-10.29351 -28.68722,-20.17002 -20.10139,-9.94794 -27.6643,-14.73607 -34.60069,-21.90597 -7.38325,-7.63178 -10.13161,-14.08452 -10.62613,-24.948549 C 943.89942,65.073756 961.6177,47.919211 992,48.072427 c 8.0422,0.04056 11.7974,0.774416 27.645,5.402519 7.4175,2.166195 10.8903,1.505885 13.1721,-2.504519 1.0793,-1.896883 2.4899,-2.96005 3.9329,-2.964104 L 1039,48 v 22.569551 c 0,22.221433 -0.032,22.564622 -2.0589,22.25 -1.4539,-0.225659 -2.7495,-2.024395 -4.4096,-6.121786 -8.3399,-20.5851 -22.1287,-32.487208 -38.79826,-33.489626 -16.48072,-0.99106 -26.65566,7.420369 -26.71128,22.081699 -0.0267,7.033103 2.37677,12.233585 7.69902,16.658806 2.07846,1.728153 14.45219,8.541726 27.49722,15.141286 27.6919,14.00955 32.6671,17.81257 38.2682,29.25202 8.4753,17.30946 5.7799,36.18857 -7.0936,49.68511 -10.6495,11.16487 -23.9804,15.55291 -44.72232,14.72089 -9.96957,-0.3999 -13.95591,-1.0542 -22.04347,-3.61807 C 961.19687,195.40845 955.76281,194 954.55133,194 952.24833,194 948,197.77049 948,199.81445 948,200.4665 946.875,201 945.5,201 H 943 Z m 590,23.89611 c -37.2954,-7.95182 -59.506,-37.92612 -57.7151,-77.88941 0.9934,-22.167821 7.3876,-37.392118 21.6574,-51.56572 9.5591,-9.49464 16.4744,-13.986323 27.0324,-17.558358 20.1081,-6.80305 35.4055,-5.938574 61.2948,3.463862 10.1074,3.67075 12.3507,3.276005 16.512,-2.905504 1.4878,-2.210101 3.16,-3.5 4.5373,-3.5 2.181,0 2.1812,0.0025 2.1812,23.986305 0,21.807209 -0.1549,24.016133 -1.7049,24.314635 -1.2349,0.237822 -2.6585,-1.550182 -5.1642,-6.486305 -6.6851,-13.16895 -17.8121,-25.978511 -27.8244,-32.031857 -14.8103,-8.954149 -32.5642,-7.840601 -44.1746,2.77069 -6.6384,6.067105 -11.0034,14.177788 -14.3655,26.692805 -2.4697,9.193201 -2.6245,11.132957 -2.6934,33.753727 -0.081,26.51564 0.9742,34.06306 6.4573,46.20302 7.6109,16.851 25.6974,26.40803 44.4571,23.49152 13.4709,-2.09428 24.2512,-7.72213 36.7762,-19.19904 3.5987,-3.29753 6.9668,-5.9955 7.4847,-5.9955 0.518,0 1.6847,0.82102 2.5929,1.82449 1.5512,1.71408 1.4379,2.0736 -1.8722,5.94066 -5.0625,5.91443 -17.7021,15.81892 -24.6867,19.34474 -9.6586,4.87567 -19.3849,6.90189 -32.6923,6.81061 -6.3745,-0.0437 -14.515,-0.70314 -18.09,-1.46537 z M 471.87963,197.20578 c -7.72708,-4.03668 -11.30037,-10.0809 -11.26573,-19.056 0.0609,-15.78978 10.74789,-24.65512 42.8861,-35.57612 l 15,-5.09721 v -13.16837 c 0,-11.74144 -0.22342,-13.46723 -2.06179,-15.92644 -3.9236,-5.24862 -7.02478,-6.7929 -14.48818,-7.21462 -7.88652,-0.44563 -12.00862,0.82072 -14.98392,4.6032 -2.55826,3.25229 -2.48656,4.18545 0.67923,8.84023 3.87501,5.69757 4.71417,9.59337 2.96708,13.77474 -3.52083,8.42653 -19.00372,9.94115 -23.65429,2.31399 -4.63081,-7.59477 -1.39567,-20.07259 6.83573,-26.36524 7.36915,-5.633491 14.19683,-7.590407 28.20614,-8.08431 22.92163,-0.80811 36.86375,4.81984 42.63313,17.2095 2.30733,4.95496 2.34775,5.58626 2.37184,37.04087 0.0182,23.70846 0.35107,32.64778 1.2848,34.5 1.42017,2.81715 5.07052,3.77581 7.30765,1.91915 1.85344,-1.53822 3.9598,0.18637 3.06754,2.51156 -0.76011,1.98082 -8.78847,7.69751 -12.9809,9.24321 -1.75123,0.64566 -5.88406,1.20746 -9.18406,1.24845 -8.24422,0.1024 -12.30098,-2.08575 -15.61486,-8.42237 -1.43818,-2.75 -3.17077,-4.87247 -3.8502,-4.7166 -0.67944,0.15587 -2.87775,1.59031 -4.88514,3.18763 -12.32197,9.80489 -29.45746,12.88337 -40.27017,7.23475 z M 508.5,185.10015 c 2.2,-1.02076 5.47433,-3.407 7.27628,-5.30276 l 3.27629,-3.44684 -0.27629,-15.92527 L 518.5,144.5 l -2.90784,0.20988 c -4.66364,0.3366 -13.65409,5.27707 -18.29778,10.05508 -9.56073,9.83727 -9.03543,26.4005 0.97531,30.75245 4.24067,1.84354 5.46536,1.79359 10.23031,-0.41726 z m 310.40894,13.06607 c -19.17833,-6.35075 -29.84455,-24.28371 -29.89158,-50.25626 -0.0416,-22.97113 8.98516,-39.86289 25.69937,-48.091269 6.45164,-3.176136 7.2361,-3.318691 18.26224,-3.318691 10.37214,0 12.08425,0.264058 17.16899,2.647962 7.37122,3.455888 13.34438,9.542638 16.97208,17.294848 3.2301,6.90259 6.14597,19.21457 5.68014,23.98388 L 872.5,143.5 l -26.45149,0.267 c -18.97199,0.1915 -26.65741,0.60019 -27.17975,1.44535 -1.74877,2.82958 1.7633,20.17589 5.61165,27.71625 4.54147,8.89842 11.3378,13.07836 21.23747,13.06163 7.24118,-0.0122 14.26374,-3.1688 19.73507,-8.8707 3.78061,-3.93993 6.79027,-5.15304 7.9857,-3.21879 0.88561,1.43295 -9.72484,14.27332 -14.78811,17.89602 -8.25802,5.9085 -13.14555,7.50306 -24.15054,7.87915 -7.75171,0.26491 -11.25703,-0.0745 -15.59106,-1.50969 z m 28.8837,-70.05233 c 0.53745,-15.40156 -2.90086,-24.47184 -10.18702,-26.8734 -8.23042,-2.712795 -14.82789,1.86302 -17.93445,12.43883 -1.77584,6.04554 -3.22701,20.6123 -2.21635,22.24757 0.47747,0.77256 5.29937,1.03903 15.37045,0.84941 L 847.5,136.5 Z m 238.96166,70.28746 c -5.829,-1.79248 -10.931,-6.70995 -12.5426,-12.08896 -0.8543,-2.85144 -1.2117,-14.96181 -1.2117,-41.05596 0,-28.6943 -0.2853,-37.24833 -1.2696,-38.06523 -0.6983,-0.57953 -3.2819,-1.19713 -5.7414,-1.37245 -3.1054,-0.22135 -4.563,-0.80054 -4.7703,-1.89548 -0.1732,-0.91443 4.4546,-6.375031 11.0174,-13.000001 6.2237,-6.282798 14.4094,-15.585769 18.1904,-20.673269 10.1617,-13.67323 10.5698,-13.364857 10.5888,8 0.01,9.4875 0.3613,17.794327 0.7841,18.459617 0.4893,0.769939 4.2094,1.315166 10.2347,1.5 L 1121.5,98.5 v 3.5 3.5 l -9.4659,0.29038 c -6.0253,0.18484 -9.7454,0.73006 -10.2347,1.5 -0.4228,0.66529 -0.7757,16.63657 -0.7841,35.49174 -0.016,36.44431 0.3623,39.74405 4.8343,42.13739 4.5524,2.43635 8.262,1.34619 13.3374,-3.91951 2.6507,-2.75 5.2414,-5 5.7572,-5 2.492,0 1.8021,2.60872 -2.3178,8.76386 -8.7061,13.00689 -21.7709,17.97375 -35.8721,13.63749 z m 61.2637,-0.41054 c -5.6119,-2.63038 -7.7591,-4.55995 -10.0046,-8.99081 -7.0783,-13.96705 -0.6881,-27.71939 17.2337,-37.08861 4.5391,-2.37295 15.0029,-6.59203 23.2529,-9.37574 l 15,-5.06128 v -13.1663 c 0,-11.73901 -0.2235,-13.46539 -2.0618,-15.92539 -3.9225,-5.24918 -7.0242,-6.79391 -14.4882,-7.21566 -7.8865,-0.44563 -12.0086,0.82072 -14.9839,4.6032 -2.5937,3.29733 -2.5022,4.13768 1.0157,9.3293 5.8812,8.67933 3.2983,17.40161 -5.8854,19.87452 -8.3625,2.25179 -15.4727,-1.26961 -17.1103,-8.47404 -2.6187,-11.52029 4.4512,-21.94999 18.7316,-27.633413 5.1141,-2.035347 7.5157,-2.305062 20.7823,-2.333938 13.1973,-0.02873 15.8174,0.249626 21.8017,2.316093 8.9064,3.075498 14.4512,7.421368 17.9056,14.033728 l 2.7927,5.34591 v 32.66331 c 0,27.94437 0.2249,32.98439 1.5567,34.8858 1.662,2.37291 5.3249,2.94088 7.1562,1.10964 1.3079,-1.30789 3.2871,-0.35475 3.2871,1.58299 0,1.93209 -5.66,6.44793 -11.5,9.17528 -3.4827,1.62647 -6.8207,2.33756 -11,2.34328 -8.0456,0.011 -12.3694,-2.23824 -15.2384,-7.92713 -1.2312,-2.44114 -2.6161,-4.8161 -3.0777,-5.27767 -0.4616,-0.46157 -2.6043,0.58366 -4.7616,2.32274 -2.1573,1.73908 -7.2004,4.73392 -11.2071,6.6552 -6.1834,2.96515 -8.6023,3.55647 -16,3.9115 -7.3369,0.35212 -9.424,0.086 -13.1972,-1.68251 z m 37.0836,-13.56016 c 1.4308,-0.73067 4.0183,-2.94213 5.75,-4.91436 l 3.1484,-3.58588 -0.015,-14.71521 c -0.01,-8.09336 -0.424,-15.36108 -0.9235,-16.1505 -1.2509,-1.9767 -7.4834,0.11595 -15.2004,5.10368 -11.6794,7.54875 -15.8698,20.71026 -9.7813,30.72197 3.4837,5.72851 10.0589,7.09603 17.0221,3.5403 z m 84.6022,14.20668 c -2.6378,-0.74337 -6.1808,-2.65338 -7.8731,-4.24446 -6.2539,-5.87966 -6.2818,-6.07926 -6.8307,-48.89287 l -0.5,-39 -5.25,-0.30226 c -8.0158,-0.46149 -7.2572,-2.47884 6.06,-16.116001 C 1261.5306,83.711783 1269.2907,74.9 1272.5548,70.5 1282.8647,56.602068 1283,56.703083 1283,78.3 c 0,12.122222 0.3592,17.659152 1.2,18.5 0.7613,0.76129 4.6,1.2 10.5,1.2 h 9.3 v 4 4 h -9.3776 c -6.8935,0 -9.6906,0.37723 -10.5594,1.4241 -0.8728,1.05162 -1.101,10.53308 -0.8725,36.25 0.322,36.22872 0.5033,37.80442 4.7228,41.0441 3.994,3.06643 11.2465,0.60438 15.1643,-5.1479 2.3914,-3.51111 5.9224,-4.83788 5.9224,-2.22534 0,2.35587 -7.6562,13.291 -11.1959,15.99092 -7.5133,5.73065 -18.9325,7.88501 -28.1003,5.30145 z M 1348,198.18772 c -19.4365,-6.46684 -29.9476,-23.955 -29.9852,-49.8885 -0.018,-12.61071 1.2095,-18.7557 5.5931,-27.99376 4.4466,-9.37076 11.3588,-16.44771 20.1168,-20.596176 C 1350.129,96.67572 1351.1297,96.5 1362,96.5 c 10.3531,0 12.064,0.26443 17.1554,2.65136 7.1606,3.35706 13.06,9.41468 16.7821,17.23233 3.0318,6.36774 6.4582,20.79599 5.8903,24.80332 L 1401.5,143.5 l -26.7877,0.2664 c -22.112,0.21991 -26.8833,0.51565 -27.3356,1.69439 -0.3014,0.78539 -0.048,4.71551 0.5634,8.7336 3.2938,21.65235 11.6931,31.81848 26.2701,31.79584 7.7831,-0.0121 14.6152,-3.00602 20.2427,-8.8707 4.0724,-4.24392 7.5471,-5.38148 7.5471,-2.47076 0,2.11283 -7.532,11.27598 -13.1555,16.00449 -7.6208,6.40792 -13.9018,8.64832 -25.3141,9.02943 -7.7371,0.25838 -11.2879,-0.0834 -15.5304,-1.49497 z M 1376.4194,125 c -0.1233,-17.59072 -4.0127,-24.33333 -14.0365,-24.33333 -9.0529,0 -13.873,7.11674 -15.6471,23.10235 -0.6016,5.42065 -0.7977,10.62725 -0.4359,11.57021 0.5872,1.53016 2.2459,1.68471 15.429,1.43762 L 1376.5,136.5 Z M 1663,198.56703 c -16.3114,-4.54595 -28.9405,-17.85364 -33.4158,-35.21137 -1.8352,-7.11803 -2.0705,-20.90792 -0.4872,-28.55644 3.1238,-15.09048 13.1665,-28.17355 26.4793,-34.49575 7.0511,-3.348572 8.6381,-3.703017 18.3217,-4.091917 9.0033,-0.361577 11.574,-0.09649 17.048,1.757999 C 1711.9017,105.06887 1724,123.38092 1724,148 c 0,5.15305 -0.698,11.91835 -1.5842,15.35566 -4.5656,17.70787 -18.2765,31.83724 -34.5305,35.58445 -5.9293,1.36695 -19.3646,1.16553 -24.8853,-0.37308 z m 22.9847,-7.43028 c 6.5399,-6.87483 7.5153,-12.40879 7.5153,-42.63675 0,-32.78273 -1.4639,-39.65084 -9.7735,-45.85488 -3.4565,-2.58067 -10.3734,-2.60461 -14.8487,-0.0514 -4.4485,2.53786 -8.5522,10.83773 -9.8423,19.90629 -1.3098,9.20621 -1.3014,44.23148 0.013,52.5 2.1717,13.66699 7.7938,20 17.7547,20 5.0915,0 5.7843,-0.29149 9.182,-3.86325 z m 202.9242,7.02125 c -18.9221,-6.23811 -29.9332,-24.68 -29.8941,-50.06796 0.027,-17.68109 4.9485,-30.93529 15.0715,-40.59095 3.2182,-3.06963 8.4528,-6.80019 11.6325,-8.29012 5.2371,-2.454007 6.8655,-2.70897 17.3022,-2.70897 11.0129,0 11.8167,0.14554 18.2239,3.299787 7.5408,3.712333 12.2218,8.698003 16.1875,17.241133 3.0643,6.60146 5.8327,18.45718 5.3903,23.08445 L 1942.5,143.5 l -26.4515,0.267 c -17.529,0.17693 -26.6758,0.63003 -27.1166,1.34325 -1.5615,2.52654 1.7981,20.48008 5.0109,26.77754 5.0048,9.81029 11.5112,14.06006 21.5572,14.08048 7.4607,0.0152 14.3371,-2.99658 20.1324,-8.81758 3.9986,-4.0164 6.6507,-5.11974 7.8074,-3.24815 0.9266,1.49932 -8.3677,12.97825 -13.8751,17.13634 -8.7318,6.5926 -13.728,8.31896 -25.0647,8.6608 -7.6559,0.23086 -11.3106,-0.13052 -15.5911,-1.54168 z M 1918,128.04922 c 0,-16.13484 -3.1888,-24.43355 -10.2881,-26.77391 -8.1388,-2.68307 -15.203,2.16529 -17.9766,12.33785 -1.8463,6.77129 -3.2744,20.70553 -2.2861,22.30469 0.4315,0.69807 5.9717,1.08215 15.6098,1.08215 H 1918 Z m 177.8364,70.09455 c -7.5486,-2.49755 -11.6098,-5.12504 -17.2628,-11.16856 -8.5927,-9.18626 -12.6387,-21.40331 -12.7422,-38.47521 -0.1438,-23.7282 8.8918,-40.73677 25.9278,-48.806867 C 2098.1239,96.678166 2099.1417,96.5 2110,96.5 c 9.8827,0 12.2032,0.323367 16.5,2.29935 5.5992,2.57489 11.5134,7.8335 15.1067,13.43212 2.9653,4.61999 7.3933,17.57828 7.3933,21.63583 0,1.65807 0.45,3.29278 1,3.6327 0.55,0.33992 1,1.91446 1,3.49897 v 2.88094 l -27.1413,0.0884 c -14.9278,0.0486 -27.5793,0.35902 -28.1145,0.68981 -1.198,0.74038 -0.2063,10.57883 1.8947,18.79756 3.8218,14.95045 12.13,22.56582 24.5713,22.52238 7.7965,-0.0272 13.0716,-2.29069 19.6254,-8.42105 4.4479,-4.16047 7.8254,-5.56268 9.4604,-3.92764 0.6575,0.65748 -0.9,2.55512 -10.7325,13.07653 -3.9686,4.2466 -8.0493,7.39254 -12.3099,9.49003 -5.6393,2.77624 -7.547,3.17701 -16.5635,3.47968 -7.9713,0.26759 -11.4233,-0.0659 -15.8537,-1.53182 z M 2124.4111,126 c -0.1055,-12.47411 -1.4355,-17.87059 -5.3754,-21.81046 -3.4492,-3.44916 -7.4675,-4.461317 -12.3546,-3.11192 -7.0494,1.94642 -11.1953,10.36096 -12.3585,25.08292 -0.9128,11.55363 -1.8049,10.9389 15.4063,10.61631 L 2124.5,136.5 Z M 227.73557,196.40223 C 226.42552,195.09218 228.36845,193 230.8951,193 c 1.47462,0 4.68897,-1.0125 7.14301,-2.25 7.90199,-3.98474 7.86731,-3.69811 7.91812,-65.45078 0.0277,-33.673086 -0.34303,-55.004371 -1.01002,-58.114445 C 243.5663,60.750507 239.77385,57.113118 232.8099,55.544702 229.44162,54.786099 227.5,53.827961 227.5,52.924404 227.5,51.714475 233.82401,51.5 269.5,51.5 c 37.09863,0 42.90484,0.212277 49.75358,1.819007 15.51564,3.640002 26.2698,11.092632 31.10909,21.558588 C 352.11659,78.670791 352.5,81.383585 352.5,90 c 0,12.61839 -1.69159,17.15025 -9.4726,25.37751 -9.77094,10.33133 -21.44812,14.14007 -46.78407,15.25953 -10.63999,0.47012 -15.58488,1.06958 -16.3413,1.98101 -0.73616,0.88701 -0.97033,9.11003 -0.72886,25.59442 0.3085,21.061 0.59514,24.72972 2.15762,27.61611 1.93911,3.58216 8.25627,7.11151 12.79677,7.14946 2.68763,0.0225 5.38038,2.18069 4.1971,3.36397 -0.82123,0.82123 -69.76926,0.88006 -70.58909,0.0602 z m 73.5394,-73.5199 c 6.0406,-1.97336 11.31181,-7.18583 13.81037,-13.65649 2.96514,-7.67898 3.24239,-26.640122 0.52238,-35.72584 -3.41605,-11.410714 -13.03119,-17.375965 -26.24176,-16.280442 -3.88614,0.32227 -6.1233,1.092923 -7.67538,2.644013 -2.14296,2.141581 -2.19694,2.842864 -2.48307,32.259139 -0.22559,23.19184 -0.002,30.42003 0.97764,31.60038 1.02563,1.23582 2.81443,1.42089 9.29249,0.96144 4.4123,-0.31294 9.7211,-1.12393 11.79733,-1.8022 z m 62.90171,72.49662 c 0.17782,-0.89158 1.85617,-2.12908 3.72966,-2.75 1.87348,-0.62092 4.34848,-2.3988 5.5,-3.95083 2.02285,-2.72645 2.1033,-4.069 2.3787,-39.69826 0.32989,-42.6793 0.3239,-42.71709 -7.3103,-46.09406 -8.09734,-3.581836 -5.52648,-4.361474 15.3578,-4.657393 L 403,97.956814 l 0.0153,6.771596 c 0.0241,10.67198 0.80349,10.91373 8.69604,2.69745 C 419.89,98.911738 425.40826,96 433.36538,96 c 6.50236,0 10.28143,1.603118 13.89081,5.89261 4.98223,5.92106 4.33525,15.74905 -1.3518,20.53439 -3.87659,3.26194 -10.83638,3.52156 -15.65439,0.58396 -1.7875,-1.08986 -3.25,-2.33789 -3.25,-2.7734 0,-0.43551 -1.32463,-2.24213 -2.94363,-4.0147 -5.38352,-5.8942 -12.96518,-2.96547 -17.45857,6.74411 -1.91038,4.12804 -2.12755,6.67725 -2.43077,28.53303 -0.4169,30.04957 0.003,33.87421 4.17948,38.03475 2.1041,2.09626 4.56777,3.36588 7.40349,3.81531 2.79437,0.44287 4.25,1.18328 4.25,2.16176 0,1.28223 -3.885,1.48818 -28.07332,1.48818 -25.3521,0 -28.04199,-0.15713 -27.75,-1.62105 z M 568,195.54679 c 0,-0.79926 1.98651,-2.33193 4.41448,-3.40593 2.42796,-1.07401 4.90296,-2.86548 5.5,-3.98106 1.5477,-2.89191 1.49881,-77.15862 -0.053,-80.56456 C 576.80911,105.28562 571.66358,102 569.09887,102 568.49449,102 568,101.09049 568,99.97886 c 0,-1.969115 0.50837,-2.014161 19.75,-1.75 L 607.5,98.5 l 0.5,44 c 0.54774,48.20123 0.46105,47.54121 6.58049,50.09808 1.88073,0.78582 3.41951,2.09772 3.41951,2.91534 0,1.2758 -3.54475,1.48658 -25,1.48658 -21.19777,0 -25,-0.22102 -25,-1.45321 z m 64,-0.0549 c 0,-0.82945 1.81729,-2.23523 4.03842,-3.12395 C 643.04281,189.56535 643,189.84359 643,147.12639 v -37.97294 l -2.52703,-3.00321 c -1.38987,-1.65176 -3.86487,-3.29704 -5.5,-3.65618 C 632.92033,102.04323 632,101.23987 632,99.898952 c 0,-1.864996 0.76461,-1.93135 19.25,-1.670545 L 670.5,98.5 l 0.30093,7 c 0.1655,3.85 0.71609,7.41558 1.22352,7.92352 0.56383,0.5644 3.27083,-1.63917 6.96127,-5.66663 7.52544,-8.212685 14.14769,-11.757522 21.96062,-11.755336 10.47981,0.0029 16.16883,4.994456 16.79402,14.735006 C 718.36839,120.52139 714.12298,125 704.21962,125 c -4.39806,0 -4.95214,-0.3253 -10.21962,-6 -4.26006,-4.5894 -6.23028,-6 -8.38035,-6 -3.85094,0 -8.22605,3.34761 -10.89229,8.33421 -2.13051,3.98466 -2.24065,5.41147 -2.53307,32.81459 -0.25094,23.51739 -0.0412,29.28192 1.17123,32.18358 1.59518,3.81781 5.04658,6.0915 10.91904,7.19318 2.169,0.40691 3.71544,1.27503 3.71544,2.08573 0,1.15188 -4.77507,1.38871 -28,1.38871 -24.28904,0 -28,-0.19987 -28,-1.5081 z m 94,0.0549 c 0,-0.79926 1.98651,-2.33193 4.41448,-3.40593 2.42796,-1.07401 5.01546,-3.00756 5.75,-4.2968 1.94704,-3.41739 1.94099,-74.90969 -0.007,-79.5239 C 734.93404,105.42118 730.03036,102 727.09887,102 726.49449,102 726,101.09049 726,99.97886 c 0,-1.969115 0.50837,-2.014161 19.75,-1.75 L 765.5,98.5 l 0.5,44 c 0.54774,48.20123 0.46105,47.54121 6.58049,50.09808 1.88073,0.78582 3.41951,2.09772 3.41951,2.91534 0,1.2758 -3.54475,1.48658 -25,1.48658 -21.19777,0 -25,-0.22102 -25,-1.45321 z m 1009,0.13368 c 0,-0.72575 1.4545,-1.96325 3.2321,-2.75 1.7777,-0.78676 4.2626,-2.97421 5.522,-4.861 l 2.2899,-3.43053 -0.272,-61.71498 c -0.2649,-60.100502 -0.3243,-61.773642 -2.272,-63.957485 -1.1,-1.233379 -3.4936,-2.874454 -5.3192,-3.646833 -1.8256,-0.772379 -3.1381,-1.947772 -2.9167,-2.611984 C 1735.5602,51.8194 1740.802,51.5 1755.0833,51.5 H 1774.5 l 0.5,67.5448 c 0.5525,74.6428 0.2254,71.14906 6.9225,73.92311 1.6926,0.7011 3.0775,1.89514 3.0775,2.65341 0,1.13481 -4.4222,1.37868 -25,1.37868 -20.0359,0 -25,-0.26201 -25,-1.31953 z m 61,0 c 0,-0.72575 1.4304,-1.96325 3.1786,-2.75 1.7482,-0.78676 4.1107,-2.70068 5.25,-4.25316 2.0343,-2.77213 2.0761,-3.90946 2.3322,-63.5 0.2934,-68.268575 0.5403,-65.819966 -7.0108,-69.509668 -2.0625,-1.007797 -3.75,-2.47981 -3.75,-3.27114 0,-1.212295 3.109,-1.3961 19.75,-1.167642 l 19.75,0.27114 0.5,67.54464 c 0.5525,74.64263 0.2254,71.14923 6.9225,73.92327 1.6926,0.7011 3.0775,1.89514 3.0775,2.65341 0,1.13481 -4.4222,1.37868 -25,1.37868 -20.0359,0 -25,-0.26201 -25,-1.31953 z M 93,193.11493 c 0,-0.48679 7.47767,-13.42429 16.61704,-28.75 C 118.7564,149.03922 127.10827,134.025 128.17675,131 c 4.12184,-11.66955 1.80873,-21.32187 -6.95919,-29.0397 l -4.61493,-4.06222 33.44869,0.30096 c 32.20861,0.289802 33.60049,0.382192 37.54336,2.49205 4.53376,2.42603 9.95575,8.10507 11.61917,12.17 6.03752,14.75401 4.53573,18.9048 -23.47723,64.88891 L 165.83732,194 H 129.41866 C 108.95902,194 93,193.61215 93,193.11493 Z M 45.624765,162.53089 C 37.747275,159.72297 32.89236,152.83837 12.316431,115.2974 6.9513868,105.50883 1.9853991,96.905357 1.2809026,96.178571 -0.32795262,94.518814 -0.36014456,94.72127 1.933054,92.077189 2.9962336,90.851333 11.398709,76.551323 20.605221,60.29939 35.754265,33.557313 37.473428,30.926966 38.703339,32.60897 c 0.747453,1.022202 8.410611,14.465858 17.02924,29.87479 12.563591,22.461985 16.785031,29.137262 21.293381,33.670793 7.793807,7.837337 15.413667,9.709517 25.53391,6.273597 2.54637,-0.86451 4.84792,-1.35369 5.11455,-1.08706 0.53059,0.53059 -29.961925,53.08784 -32.424157,55.88666 -0.835985,0.95027 -3.797642,2.86277 -6.581462,4.25 -4.014926,2.00073 -6.519973,2.51317 -12.115145,2.47836 -3.879511,-0.0241 -8.797512,-0.66549 -10.928891,-1.42522 z M 94.060487,63.698867 C 79.101399,37.346338 78.608033,36.294083 78.205122,29.882408 c -0.325713,-5.183183 0.03593,-7.63893 1.66845,-11.329501 2.958232,-6.687574 7.495783,-12.0416689 11.866472,-14.0018717 2.067976,-0.9274629 4.848649,-2.2183625 6.179274,-2.8686658 2.839132,-1.38754172 71.388902,-1.25770418 71.853502,0.1360951 0.15381,0.4614344 8.38719,14.6967134 18.29639,31.6339534 9.9092,16.93724 17.75089,31.060818 17.42598,31.385729 -0.32491,0.32491 -16.88175,0.606745 -36.79297,0.6263 -38.18352,0.0375 -39.9731,0.221819 -46.79605,4.819805 -4.50281,3.034439 -7.69719,7.994285 -9.63297,14.956887 -0.8806,3.167373 -1.86482,5.735851 -2.18715,5.707728 -0.32233,-0.02812 -7.53383,-12.290623 -16.025563,-27.25 z M 586.27066,78.03618 C 580.56804,75.447492 578.00852,71.070144 578.00374,63.897883 577.99753,54.59074 584.42177,48 593.5,48 c 9.02234,0 15.5,6.594618 15.5,15.779849 0,7.010578 -2.79269,11.767646 -8.40454,14.316269 -5.21236,2.367199 -9.01309,2.351296 -14.3248,-0.05994 z m 158,0 c -5.70262,-2.588688 -8.26214,-6.966036 -8.26692,-14.138297 -0.003,-4.170595 0.57121,-6.44442 2.24626,-8.898389 6.29574,-9.223315 20.20426,-9.223315 26.5,0 3.00138,4.39705 3.11132,13.075514 0.2256,17.808648 -2.2436,3.679946 -8.78161,7.147934 -13.4756,7.147934 -1.65,0 -4.9032,-0.863953 -7.22934,-1.919896 z"
       id="path942" />
  </g>
</svg>
